<svg width="95" height="84" viewBox="0 0 95 84" fill="none" xmlns="http://www.w3.org/2000/svg">
<path d="M8.1499 14.4032H86.9798V58.5122H8.1499V14.4032Z" fill="#DFE8F4"/>
<path d="M47.5649 14.4032H86.9799V58.5122H47.5649V14.4032Z" fill="#CCD8E5"/>
<path d="M7.14111 14.4032H14.4926V21.7547H7.14111V14.4032Z" fill="#0795FF"/>
<path d="M14.4927 21.7546H21.8442V29.1061H14.4927V21.7546Z" fill="#0795FF"/>
<path d="M14.4927 21.7546H21.8442V29.1061H14.4927V21.7546Z" fill="#0795FF"/>
<path d="M7.14111 29.1062H14.4926V36.4577H7.14111V29.1062Z" fill="#0795FF"/>
<path d="M14.4927 36.4576H21.8442V43.8091H14.4927V36.4576Z" fill="#0795FF"/>
<path d="M7.14111 43.8092H14.4926V51.1607H7.14111V43.8092Z" fill="#0795FF"/>
<path d="M14.4927 51.1607H21.8442V58.5122H14.4927V51.1607Z" fill="#0795FF"/>
<path d="M21.8442 14.4032H29.1958V21.7547H21.8442L21.8442 14.4032Z" fill="#0795FF"/>
<path d="M29.1958 21.7546H36.5473V29.1061H29.1958L29.1958 21.7546Z" fill="#0795FF"/>
<path d="M21.8442 29.1062H29.1958V36.4577H21.8442L21.8442 29.1062Z" fill="#0795FF"/>
<path d="M29.1958 36.4576H36.5473V43.8091H29.1958L29.1958 36.4576Z" fill="#0795FF"/>
<path d="M21.8442 43.8092H29.1958V51.1607H21.8442L21.8442 43.8092Z" fill="#0795FF"/>
<path d="M29.1958 51.1607H36.5473V58.5122H29.1958L29.1958 51.1607Z" fill="#0795FF"/>
<path d="M36.5474 14.4032H43.8989V21.7547H36.5474V14.4032Z" fill="#0795FF"/>
<path d="M43.8989 21.7546H51.2504V29.1061H43.8989V21.7546Z" fill="#0795FF"/>
<path d="M36.5474 29.1062H43.8989V36.4577H36.5474V29.1062Z" fill="#0795FF"/>
<path d="M43.8989 36.4576H51.2504V43.8091H43.8989V36.4576Z" fill="#0795FF"/>
<path d="M36.5474 43.8092H43.8989V51.1607H36.5474V43.8092Z" fill="#0795FF"/>
<path d="M43.8989 51.1607H51.2504V58.5122H43.8989V51.1607Z" fill="#0795FF"/>
<path d="M51.231 14.4032H58.5825V21.7547H51.231V14.4032Z" fill="#156CDD"/>
<path d="M58.5825 21.7546H65.934V29.1061H58.5825V21.7546Z" fill="#156CDD"/>
<path d="M51.231 29.1062H58.5825V36.4577H51.231V29.1062Z" fill="#156CDD"/>
<path d="M58.5825 36.4576H65.934V43.8091H58.5825V36.4576Z" fill="#156CDD"/>
<path d="M51.231 43.8092H58.5825V51.1607H51.231V43.8092Z" fill="#156CDD"/>
<path d="M58.5825 51.1607H65.934V58.5122H58.5825V51.1607Z" fill="#156CDD"/>
<path d="M65.9341 14.4032H73.2856V21.7547H65.9341V14.4032Z" fill="#156CDD"/>
<path d="M73.2856 21.7546H80.6372V29.1061H73.2856V21.7546Z" fill="#156CDD"/>
<path d="M65.9341 29.1062H73.2856V36.4577H65.9341V29.1062Z" fill="#156CDD"/>
<path d="M73.2856 36.4576H80.6372V43.8091H73.2856V36.4576Z" fill="#156CDD"/>
<path d="M65.9341 43.8092H73.2856V51.1607H65.9341V43.8092Z" fill="#156CDD"/>
<path d="M73.2856 51.1607H80.6372V58.5122H73.2856V51.1607Z" fill="#156CDD"/>
<path d="M80.6367 14.4032H87.9882V21.7547H80.6367V14.4032Z" fill="#156CDD"/>
<path d="M80.6367 29.1062H87.9882V36.4577H80.6367V29.1062Z" fill="#156CDD"/>
<path d="M80.6367 43.8092H87.9882V51.1607H80.6367V43.8092Z" fill="#156CDD"/>
<path d="M11.4474 5.55803C11.469 5.21543 11.4571 4.874 11.4115 4.53375C11.3659 4.1935 11.2875 3.86097 11.1764 3.53615C11.0653 3.21134 10.9236 2.90049 10.7512 2.60359C10.5789 2.30669 10.3792 2.02946 10.1523 1.77189C9.92534 1.51432 9.67544 1.28136 9.4026 1.07301C9.12977 0.864672 8.83923 0.684942 8.53098 0.533826C8.22274 0.382703 7.90272 0.263116 7.57092 0.175044C7.23912 0.0869612 6.90192 0.0321056 6.55931 0.0104584C6.2167 -0.0111888 5.87527 0.000760507 5.53502 0.0463825C5.19478 0.0919852 4.86225 0.17035 4.53743 0.281447C4.21262 0.392554 3.90176 0.534278 3.60486 0.706619C3.30797 0.878963 3.03074 1.0786 2.77317 1.30555C2.51559 1.5325 2.28264 1.78239 2.07429 2.05523C1.86594 2.32807 1.68621 2.61861 1.5351 2.92685C1.38398 3.2351 1.26439 3.55512 1.17632 3.88692C1.08824 4.21872 1.03338 4.55593 1.01173 4.89853C0.936295 5.47929 0.960161 6.05594 1.08332 6.62848C1.20649 7.20102 1.42185 7.73648 1.72942 8.23484C2.28998 9.16576 2.71518 10.1549 3.005 11.2022C3.29482 12.2495 3.43861 13.3165 3.43637 14.4031L3.43637 84H8.94515V14.4031C8.90593 13.3368 9.02348 12.288 9.29779 11.2568C9.57211 10.2256 9.99122 9.25711 10.5551 8.35122C11.1331 7.50977 11.4305 6.57871 11.4474 5.55803Z" fill="#156CDD"/>
<path d="M94.1179 5.55805C94.1111 5.23406 94.0744 4.91349 94.0079 4.59634C93.9413 4.27919 93.846 3.97091 93.722 3.67151C93.598 3.37211 93.4475 3.08674 93.2703 2.81539C93.0931 2.54405 92.8924 2.2914 92.6682 2.05745C92.444 1.8235 92.2 1.61227 91.9365 1.42376C91.6729 1.23526 91.3941 1.07272 91.1003 0.936152C90.8064 0.799577 90.5024 0.691324 90.1884 0.611386C89.8743 0.531451 89.5556 0.481193 89.2322 0.460651C88.9088 0.44009 88.5863 0.449595 88.2646 0.489126C87.943 0.528657 87.6278 0.597576 87.319 0.695842C87.0102 0.794107 86.7131 0.920057 86.4278 1.07368C86.1424 1.2273 85.8737 1.40595 85.6217 1.60963C85.3696 1.81331 85.1386 2.03852 84.9285 2.28525C84.7184 2.53199 84.5329 2.79601 84.372 3.0773C84.2111 3.3586 84.0776 3.65233 83.9714 3.9585C83.8652 4.26468 83.7883 4.57802 83.7405 4.89854C83.6593 5.47706 83.6769 6.05254 83.7934 6.625C83.9099 7.19746 84.1185 7.73407 84.4194 8.23485C84.9799 9.16577 85.4051 10.1549 85.695 11.2022C85.9848 12.2495 86.1286 13.3165 86.1263 14.4031L86.1263 84H91.6351V14.4031C91.5965 13.3369 91.7143 12.2882 91.9886 11.2571C92.2629 10.226 92.6817 9.25736 93.2451 8.35123C93.808 7.50517 94.099 6.57411 94.1179 5.55805H94.1179Z" fill="#0795FF"/>
</svg>
