<svg width="94" height="96" viewBox="0 0 94 96" fill="none" xmlns="http://www.w3.org/2000/svg">
<path d="M83.8012 2.39447L0.117676 12.9237L10.5534 95.3862L93.1177 85.7426L83.8012 2.39446V2.39447ZM5.35201 17.5487C5.35201 16.4334 6.27378 15.515 7.39307 15.515C8.51237 15.515 9.43413 16.4334 9.43413 17.5487C9.43413 18.6639 8.51237 19.5824 7.39307 19.5824C6.24086 19.5824 5.35201 18.6967 5.35201 17.5487ZM6.53714 26.9627C6.53714 25.8474 7.45891 24.929 8.5782 24.929C9.6975 24.929 10.6193 25.8474 10.6193 26.9627C10.6193 28.0779 9.6975 28.9963 8.5782 28.9963C7.45891 28.9963 6.53714 28.0779 6.53714 26.9627H6.53714ZM7.39307 36.3766C7.39307 35.2614 8.31484 34.343 9.43413 34.343C10.5534 34.343 11.4752 35.2614 11.4752 36.3766C11.4752 37.4919 10.5534 38.4103 9.43413 38.4103C8.31484 38.4103 7.39307 37.4919 7.39307 36.3766ZM8.57821 45.233C8.57821 44.1178 9.49998 43.1993 10.6193 43.1993C11.7386 43.1993 12.6603 44.1178 12.6603 45.233C12.6603 46.3482 11.7386 47.2667 10.6193 47.2667C9.49997 47.2667 8.5782 46.3482 8.5782 45.233H8.57821ZM9.43413 53.3677C9.43413 52.2525 10.3559 51.334 11.4752 51.334C12.5945 51.334 13.5163 52.2525 13.5163 53.3677C13.5163 54.483 12.5945 55.4014 11.4752 55.4014C10.3559 55.4014 9.43413 54.483 9.43413 53.3677ZM10.1584 62.6833C10.1584 61.5681 11.0802 60.6496 12.1994 60.6496C13.3187 60.6496 14.2405 61.5681 14.2405 62.6833C14.2405 63.7985 13.3187 64.717 12.1994 64.717C11.0802 64.717 10.1584 63.8314 10.1584 62.6833ZM11.4752 72.0317C11.4752 70.9164 12.397 69.998 13.5163 69.998C14.6356 69.998 15.5573 70.9164 15.5573 72.0317C15.5573 73.1469 14.6356 74.0654 13.5163 74.0654C12.397 74.0654 11.4752 73.1469 11.4752 72.0317ZM15.1294 79.3136C16.2487 79.3136 17.1704 80.232 17.1704 81.3473C17.1704 82.4625 16.2487 83.3809 15.1294 83.3809C14.0101 83.3809 13.0883 82.4625 13.0883 81.3473C13.0883 80.232 13.9771 79.3136 15.1294 79.3136ZM15.5902 91.7125C14.4709 91.7125 13.5492 90.794 13.5492 89.6788C13.5492 88.5635 14.4709 87.6451 15.5902 87.6451C16.7095 87.6451 17.6313 88.5635 17.6313 89.6788C17.6313 90.794 16.7095 91.7125 15.5902 91.7125Z" fill="#FFBD59"/>
<path d="M9.43408 6.95388L11.4751 15.515L44.3955 9.64359L42.4203 0L9.43408 6.95388Z" fill="#006BFA" fill-opacity="0.8"/>
</svg>
