<svg width="94" height="87" viewBox="0 0 94 87" fill="none" xmlns="http://www.w3.org/2000/svg">
<path d="M36.0517 0H58.0461C58.2066 0 58.3655 0.0156408 58.5229 0.0469608C58.6803 0.0782613 58.8331 0.124615 58.9813 0.186024C59.1296 0.247432 59.2704 0.322701 59.4038 0.411858C59.5372 0.501008 59.6607 0.60232 59.7742 0.715782C59.8876 0.829254 59.9889 0.952688 60.0781 1.08611C60.1672 1.21952 60.2425 1.36036 60.3039 1.50861C60.3653 1.65687 60.4117 1.80967 60.443 1.96705C60.4743 2.12444 60.4899 2.28336 60.4899 2.44382V24.4382C60.4899 24.5987 60.4743 24.7576 60.443 24.915C60.4117 25.0723 60.3653 25.2252 60.3039 25.3734C60.2425 25.5217 60.1672 25.6625 60.0781 25.7959C59.9889 25.9293 59.8876 26.0528 59.7742 26.1662C59.6607 26.2797 59.5372 26.381 59.4038 26.4702C59.2704 26.5593 59.1296 26.6346 58.9813 26.696C58.8331 26.7574 58.6803 26.8038 58.5229 26.8351C58.3655 26.8664 58.2066 26.882 58.0461 26.882H36.0517C35.8913 26.882 35.7323 26.8664 35.575 26.8351C35.4176 26.8038 35.2648 26.7574 35.1165 26.696C34.9683 26.6346 34.8274 26.5593 34.694 26.4702C34.5606 26.381 34.4372 26.2797 34.3237 26.1662C34.2102 26.0528 34.1089 25.9293 34.0198 25.7959C33.9306 25.6625 33.8553 25.5217 33.7939 25.3734C33.7325 25.2252 33.6862 25.0723 33.6549 24.915C33.6236 24.7576 33.6079 24.5987 33.6079 24.4382V2.44382C33.6079 2.28335 33.6235 2.12444 33.6549 1.96705C33.6862 1.80967 33.7325 1.65686 33.7939 1.50861C33.8553 1.36036 33.9306 1.21953 34.0198 1.08611C34.1089 0.952694 34.2102 0.829246 34.3237 0.715782C34.4372 0.602311 34.5606 0.501008 34.694 0.41186C34.8274 0.322709 34.9683 0.24742 35.1165 0.186024C35.2648 0.124615 35.4176 0.0782613 35.575 0.0469608C35.7323 0.0156526 35.8913 0 36.0517 0Z" fill="#DFE8F4"/>
<path d="M45.4556 16.618V26.882H58.0266C58.1875 26.882 58.3469 26.8664 58.5048 26.8352C58.6626 26.8039 58.816 26.7577 58.9648 26.6964C59.1136 26.6351 59.255 26.56 59.3891 26.471C59.5232 26.3819 59.6473 26.2808 59.7616 26.1674C59.8758 26.0541 59.978 25.9308 60.068 25.7974C60.1581 25.664 60.2344 25.5232 60.2968 25.3749C60.3593 25.2266 60.4068 25.0736 60.4393 24.916C60.4718 24.7584 60.4887 24.5991 60.49 24.4382L60.4899 16.618H45.4556V16.618Z" fill="#CCD8E5"/>
<path d="M69.5224 0H91.5168C91.6773 0 91.8362 0.0156408 91.9936 0.0469608C92.151 0.0782613 92.3038 0.124615 92.452 0.186024C92.6003 0.247432 92.7411 0.322701 92.8745 0.411858C93.0079 0.501008 93.1314 0.60232 93.2448 0.715782C93.3583 0.829254 93.4596 0.952688 93.5488 1.08611C93.6379 1.21952 93.7132 1.36036 93.7746 1.50861C93.836 1.65687 93.8824 1.80967 93.9137 1.96705C93.945 2.12444 93.9606 2.28336 93.9606 2.44382L93.9606 24.4382C93.9606 24.5987 93.945 24.7576 93.9137 24.915C93.8824 25.0723 93.836 25.2252 93.7746 25.3734C93.7132 25.5217 93.6379 25.6625 93.5488 25.7959C93.4596 25.9293 93.3583 26.0528 93.2448 26.1662C93.1314 26.2797 93.0079 26.381 92.8745 26.4702C92.7411 26.5593 92.6002 26.6346 92.452 26.696C92.3037 26.7574 92.1509 26.8038 91.9936 26.8351C91.8362 26.8664 91.6773 26.882 91.5168 26.882H69.5224C69.362 26.882 69.203 26.8664 69.0457 26.8351C68.8883 26.8038 68.7355 26.7574 68.5872 26.696C68.439 26.6346 68.2981 26.5593 68.1647 26.4701C68.0313 26.381 67.9078 26.2797 67.7944 26.1662C67.6809 26.0528 67.5796 25.9293 67.4905 25.7959C67.4013 25.6625 67.326 25.5216 67.2646 25.3734C67.2032 25.2251 67.1569 25.0723 67.1256 24.915C67.0943 24.7576 67.0786 24.5987 67.0786 24.4382V2.44382C67.0786 2.28335 67.0943 2.12443 67.1256 1.96705C67.1569 1.80967 67.2032 1.65686 67.2646 1.50861C67.326 1.36036 67.4013 1.21953 67.4904 1.0861C67.5796 0.952692 67.6809 0.829242 67.7944 0.715778C67.9078 0.602307 68.0313 0.501006 68.1647 0.411858C68.2981 0.322707 68.4389 0.247418 68.5872 0.186022C68.7354 0.124613 68.8883 0.0782594 69.0456 0.046959C69.203 0.0156527 69.362 0 69.5224 0Z" fill="#CCD8E5"/>
<path d="M51.1252 41.2517L49.8935 20.704C49.8786 20.4304 49.8381 20.1605 49.7718 19.8946C49.7056 19.6286 49.6149 19.3712 49.4997 19.1225C49.3844 18.8738 49.2468 18.6382 49.0868 18.4157C48.9267 18.1932 48.7471 17.9878 48.548 17.7994C48.3488 17.6111 48.1337 17.4432 47.9026 17.2959C47.6715 17.1485 47.4286 17.0242 47.1738 16.923C46.9191 16.8219 46.6571 16.7456 46.3879 16.6943C46.1186 16.643 45.8469 16.6176 45.5728 16.618C45.2966 16.6137 45.0224 16.6356 44.7503 16.6837C44.4782 16.7318 44.2131 16.8052 43.955 16.9039C43.6969 17.0026 43.4505 17.1249 43.2158 17.2706C42.981 17.4164 42.7622 17.5831 42.5593 17.7707C42.3564 17.9582 42.1731 18.1633 42.0094 18.3859C41.8457 18.6085 41.7045 18.8445 41.5858 19.0941C41.4672 19.3436 41.3732 19.6021 41.3039 19.8696C41.2347 20.1371 41.1914 20.4087 41.174 20.6845L39.2189 54.7807C39.2087 54.9248 39.1686 55.06 39.0985 55.1864C39.0284 55.3127 38.9349 55.4183 38.818 55.5032C38.701 55.5881 38.5716 55.6443 38.4298 55.6718C38.2879 55.6993 38.1469 55.6955 38.0068 55.6604L32.5522 54.2333C29.7596 53.516 26.9443 53.4118 24.1063 53.9205C23.7785 53.9821 23.4709 54.0978 23.1836 54.2673C22.8963 54.4368 22.6464 54.6502 22.4339 54.9073C22.2214 55.1645 22.0589 55.4501 21.9466 55.7642C21.8342 56.0783 21.7786 56.4021 21.7798 56.7357C21.7829 57.033 21.8314 57.3226 21.9251 57.6047C22.0188 57.8868 22.1532 58.1479 22.3285 58.388C22.5037 58.6281 22.7114 58.8357 22.9515 59.0109C23.1916 59.1861 23.4527 59.3205 23.7349 59.4142C26.7107 60.4705 29.3174 62.1128 31.5551 64.3409L34.8591 67.6058C35.993 68.7333 37.0055 69.9608 37.8967 71.2884C38.7879 72.6159 39.5404 74.0179 40.1544 75.4942C40.7684 76.9706 41.232 78.4927 41.545 80.0607C41.8581 81.6287 42.0146 83.2121 42.0146 84.811L68.3492 84.8103V81.8582C68.3535 80.2254 68.725 78.6809 69.4636 77.2247C70.41 75.3517 71.126 73.3943 71.6116 71.3527C72.0972 69.3111 72.3392 67.241 72.3376 65.1425L72.3375 54.2528C72.3383 53.7971 72.3022 53.3444 72.2291 52.8946C72.1561 52.4448 72.0471 52.0039 71.9022 51.5719C71.7573 51.1399 71.5784 50.7225 71.3654 50.3196C71.1525 49.9167 70.9083 49.5338 70.6329 49.1707C70.3575 48.8076 70.0546 48.4693 69.7241 48.1556C69.3936 47.8419 69.0399 47.557 68.6629 47.301C68.286 47.045 67.8908 46.8212 67.4773 46.6295C67.0639 46.4379 66.6377 46.281 66.1987 46.1589L51.829 42.1315C51.6305 42.074 51.4667 41.9645 51.3376 41.8032C51.2085 41.6418 51.1377 41.458 51.1252 41.2517L51.1252 41.2517H51.1252Z" fill="#0795FF"/>
<path d="M41.5256 82.0733H68.5445C68.7726 82.0733 68.9921 82.1169 69.2029 82.2042C69.4137 82.2915 69.5997 82.4158 69.761 82.5772C69.9224 82.7385 70.0467 82.9245 70.134 83.1353C70.2213 83.3461 70.265 83.5656 70.265 83.7937V87H39.8052V83.7937C39.8052 83.5656 39.8488 83.3461 39.9361 83.1353C40.0235 82.9245 40.1478 82.7385 40.3091 82.5772C40.4704 82.4158 40.6565 82.2915 40.8672 82.2042C41.078 82.1169 41.2975 82.0733 41.5256 82.0733Z" fill="#DFE8F4"/>
<path d="M2.5615 0H24.5559C24.7163 0 24.8753 0.0156408 25.0326 0.0469608C25.19 0.0782613 25.3428 0.124615 25.4911 0.186024C25.6393 0.247432 25.7802 0.322701 25.9136 0.411858C26.047 0.501008 26.1704 0.60232 26.2839 0.715782C26.3974 0.829254 26.4987 0.952688 26.5878 1.08611C26.677 1.21952 26.7523 1.36036 26.8137 1.50861C26.8751 1.65687 26.9214 1.80967 26.9527 1.96705C26.984 2.12444 26.9997 2.28336 26.9997 2.44382V24.4382C26.9997 24.5987 26.9841 24.7576 26.9527 24.915C26.9214 25.0723 26.8751 25.2252 26.8137 25.3734C26.7523 25.5217 26.677 25.6625 26.5878 25.7959C26.4987 25.9293 26.3974 26.0528 26.2839 26.1662C26.1704 26.2797 26.047 26.381 25.9136 26.4702C25.7802 26.5593 25.6393 26.6346 25.4911 26.696C25.3428 26.7574 25.19 26.8038 25.0326 26.8351C24.8753 26.8664 24.7163 26.882 24.5559 26.882H2.5615C2.40103 26.882 2.24211 26.8664 2.08473 26.8351C1.92735 26.8038 1.77453 26.7574 1.62628 26.696C1.47804 26.6346 1.3372 26.5593 1.20378 26.4702C1.07036 26.381 0.946918 26.2797 0.833454 26.1662C0.719987 26.0528 0.61868 25.9293 0.529532 25.7959C0.440381 25.6625 0.365104 25.5217 0.303699 25.3734C0.242292 25.2252 0.195936 25.0723 0.164631 24.915C0.133326 24.7576 0.117675 24.5987 0.117676 24.4382V2.44382C0.117675 2.28335 0.133336 2.12443 0.164631 1.96705C0.195935 1.80967 0.242291 1.65686 0.303699 1.50861C0.365104 1.36036 0.440381 1.21953 0.529532 1.0861C0.61868 0.952692 0.719987 0.829242 0.833454 0.715778C0.946918 0.602307 1.07036 0.501006 1.20378 0.411858C1.3372 0.322707 1.47804 0.247418 1.62628 0.186022C1.77453 0.124613 1.92735 0.0782594 2.08473 0.046959C2.24211 0.0156527 2.40103 0 2.5615 0Z" fill="#0795FF"/>
<path d="M18.5222 8.47701L19.642 9.59678C19.7392 9.69394 19.814 9.806 19.8666 9.93294C19.9192 10.0599 19.9455 10.1921 19.9455 10.3295C19.9455 10.4669 19.9192 10.599 19.8666 10.726C19.814 10.8529 19.7392 10.965 19.642 11.0622L12.3013 18.4029C12.2041 18.5001 12.0921 18.575 11.9651 18.6275C11.8382 18.6801 11.706 18.7064 11.5686 18.7064C11.4312 18.7064 11.299 18.6801 11.172 18.6275C11.0451 18.575 10.933 18.5001 10.8359 18.4029L9.7161 17.2831C9.61894 17.186 9.54407 17.0739 9.49149 16.947C9.4389 16.82 9.41261 16.6879 9.41261 16.5505C9.41261 16.413 9.43891 16.2809 9.49149 16.1539C9.54406 16.027 9.61895 15.9149 9.7161 15.8178L17.0569 8.47701C17.154 8.37985 17.2661 8.30497 17.393 8.25238C17.52 8.19979 17.6521 8.1735 17.7895 8.17351C17.927 8.17351 18.0591 8.1998 18.1861 8.25238C18.313 8.30497 18.4251 8.37984 18.5222 8.47701Z" fill="white"/>
<path d="M13.4229 17.2753L12.303 18.3949C12.2058 18.492 12.0937 18.5669 11.9668 18.6194C11.8398 18.672 11.7077 18.6983 11.5702 18.6982C11.4328 18.6982 11.3007 18.6719 11.1737 18.6193C11.0468 18.5667 10.9347 18.4918 10.8376 18.3946L7.49272 15.0486C7.39558 14.9514 7.32073 14.8393 7.26817 14.7124C7.21562 14.5854 7.18934 14.4532 7.18936 14.3158C7.18939 14.1784 7.21571 14.0462 7.26831 13.9193C7.3209 13.7924 7.39581 13.6803 7.49297 13.5832L8.61294 12.4636C8.71012 12.3665 8.82219 12.2916 8.94915 12.2391C9.07609 12.1865 9.20828 12.1602 9.34569 12.1603C9.4831 12.1603 9.61526 12.1866 9.74221 12.2392C9.86915 12.2918 9.98118 12.3667 10.0783 12.4639L13.4232 15.8099C13.5203 15.9071 13.5952 16.0192 13.6478 16.1461C13.7003 16.2731 13.7266 16.4053 13.7266 16.5427C13.7265 16.6801 13.7002 16.8123 13.6476 16.9392C13.595 17.0661 13.5201 17.1782 13.4229 17.2753Z" fill="white"/>
</svg>
