<svg width="115" height="73" viewBox="0 0 115 73" fill="none" xmlns="http://www.w3.org/2000/svg">
<path d="M44.4719 11.7421C44.4602 11.6838 44.4486 11.6313 44.4311 11.573C43.1363 5.79891 38.6045 3.97918 32.9528 3.75756C28.8643 3.59425 23.9476 2.71939 20.1274 4.57409C18.3485 5.43729 16.9079 6.88373 15.7122 8.46431C10.7255 15.1016 9.90311 23.9669 10.2356 32.2664C10.568 40.5718 11.857 48.9588 10.3522 57.13C22.1687 57.0717 33.9793 56.8559 45.7842 56.4768V29.9568C45.7842 23.8794 45.79 17.7087 44.4719 11.7421" fill="#F8A90C"/>
<path d="M49.9722 50.137L34.6504 41.1959H22.554L7.42468 50.1253C2.76457 52.8782 -0.00582323 57.3458 9.19077e-06 62.1051L0.0116721 72.5859H57.4727V62.1459C57.4727 57.3633 54.6731 52.8782 49.9722 50.137" fill="#96DDF8"/>
<path d="M33.4839 32.2255H23.6504V41.26H33.4839V32.2255Z" fill="#EBA590"/>
<path d="M32.4166 34.8793H24.7412C19.6786 34.8793 15.5376 30.7383 15.5376 25.6758V15.6965C15.5376 10.634 19.6786 6.49295 24.7412 6.49295H32.4166C37.4792 6.49295 41.6202 10.634 41.6202 15.6965V25.6758C41.6202 30.7383 37.4792 34.8793 32.4166 34.8793Z" fill="#ECB695"/>
<path d="M32.2532 5.93304C33.7346 9.25169 32.6032 13.2586 30.4102 16.1514C28.2114 19.0502 25.1085 21.0798 22.1223 23.1562C19.1361 25.2267 16.1324 27.4838 14.3069 30.6275C12.5746 24.3577 13.1929 17.4637 16.0216 11.6022C16.8556 9.87576 17.9171 8.19019 19.4919 7.0937C21.3174 5.82806 23.6096 5.48978 25.8201 5.23899C27.7506 5.0232 29.6928 4.84822 31.6292 4.71408C33.4605 4.59159 35.3794 4.51578 37.0533 5.26233C39.9403 6.53963 41.3051 9.81162 42.2325 12.8328C43.7839 17.8895 44.8688 23.2145 44.1864 28.4579C41.8242 25.5883 39.4679 22.7129 37.1058 19.8434C34.7553 16.9738 32.2824 13.8068 32.2066 10.0974" fill="#F8A90C"/>
<path d="M107.468 50.551L92.1523 41.6099H80.0501L64.9208 50.5452C60.2607 53.2923 57.4903 57.7599 57.4961 62.5191L57.5078 73H114.969V62.56C114.969 57.7774 112.169 53.2923 107.468 50.551Z" fill="#96DDF8"/>
<path d="M90.98 32.6397H81.1523V41.6741H90.98V32.6397Z" fill="#EBA590"/>
<path d="M89.9127 35.2934H82.2373C77.1747 35.2934 73.0337 31.1524 73.0337 26.0898V16.1106C73.0337 11.048 77.1747 6.90701 82.2373 6.90701H89.9127C94.9753 6.90701 99.1163 11.048 99.1163 16.1106V26.0898C99.1163 31.1524 94.9753 35.2934 89.9127 35.2934Z" fill="#ECB695"/>
<path d="M75.5416 19.4875C76.3523 18.4202 77.4371 17.3529 78.7844 16.9329C80.5692 16.3789 81.9689 17.2654 83.6312 17.7961C85.4101 18.3619 87.3406 18.2977 89.1778 18.0878C90.4843 17.9361 91.5574 17.0438 92.8406 16.8454C94.9927 16.5188 97.0282 18.0003 97.9381 19.8725C98.2647 20.5432 98.3114 21.2373 98.533 21.9313C98.6672 22.3512 99.1162 22.8762 99.1162 23.3194V16.1106C99.1162 11.048 94.9752 6.90701 89.9127 6.90701H82.2372C77.1747 6.90701 73.0278 11.048 73.0278 16.1106V22.8178C74.066 21.7447 75.1042 20.0591 75.5416 19.4875" fill="#A04B37"/>
<path d="M78.6616 50.551L63.3399 41.6099H51.2376L36.1083 50.5452C31.4482 53.2923 28.6836 57.7599 28.6895 62.5191L28.7011 73H86.1621V62.56C86.1621 57.7774 83.3567 53.2923 78.6616 50.551" fill="#96DDF8"/>
<path d="M51.2901 41.6099H51.2376L36.1083 50.5452C31.4482 53.2923 28.6836 57.7599 28.6895 62.5191L28.7011 73H52.7015C52.929 62.5133 52.6432 52.015 51.2901 41.6099" fill="#20335F"/>
<path d="M78.6621 50.5511L63.9527 41.9716C62.028 52.1842 62.0397 62.595 62.7863 73.0001H86.1626V62.56C86.1626 57.7775 83.3572 53.2923 78.6621 50.5511" fill="#20335F"/>
<path d="M62.1738 32.6397H52.3403V41.6741H62.1738V32.6397Z" fill="#EBA590"/>
<path d="M61.1002 35.2934H53.4247C48.3622 35.2934 44.2212 31.1524 44.2212 26.0898V16.1106C44.2212 11.048 48.3622 6.90701 53.4247 6.90701H61.1002C66.1628 6.90701 70.3096 11.048 70.3096 16.1106V26.0898C70.3096 31.1524 66.1628 35.2934 61.1002 35.2934Z" fill="#ECB695"/>
<path d="M63.6374 14.2267C63.6666 14.2384 63.7016 14.2442 63.7307 14.25C66.6353 14.9674 67.9359 18.531 70.648 19.7792C70.9746 19.9308 71.3187 20.0475 71.6745 20.0299C75.1623 19.8958 73.2784 10.9605 72.3627 9.33912C71.0912 7.08198 68.9391 5.28559 66.3845 4.72568C65.4979 4.53321 64.5706 4.46905 63.7307 4.12494C62.0568 3.44838 60.9836 1.80363 59.4381 0.870445C56.831 -0.710146 53.384 0.0480775 50.7944 1.65783C48.2048 3.26174 46.1576 5.59471 43.7313 7.44359C41.3051 9.28664 38.2022 10.6689 35.2568 9.8932C36.155 14.3375 40.541 17.4637 45.032 18.0936C49.5288 18.7235 54.0606 17.3179 58.2074 15.4632C59.9338 14.6933 61.8002 13.8184 63.6374 14.2267" fill="#20335F"/>
</svg>
