<svg width="84" height="83" viewBox="0 0 84 83" fill="none" xmlns="http://www.w3.org/2000/svg">
<path d="M75.8416 41.4198C75.8416 22.939 60.8581 7.95848 42.3803 7.95848C23.8994 7.95848 8.91895 22.9389 8.91895 41.4198C8.91895 59.8976 23.8994 74.8811 42.3803 74.8811C60.8581 74.8811 75.8416 59.8976 75.8416 41.4198Z" fill="white"/>
<path d="M44.035 74.8387V67.0015C44.035 66.3317 43.4925 65.7892 42.8227 65.7892H41.9378C41.268 65.7892 40.7255 66.3317 40.7255 67.0015V74.8387C23.6721 74.0083 9.97358 60.4128 8.97953 43.4018H17.1259C17.7957 43.4018 18.3382 42.8594 18.3382 42.1896V41.3016C18.3382 40.6349 17.7957 40.0893 17.1259 40.0893H8.94923C9.62506 22.7783 23.4539 8.84342 40.7255 8.0009V16.4928C40.7255 17.1595 41.268 17.705 41.9378 17.705H42.8227C43.4925 17.705 44.035 17.1595 44.035 16.4928V8.0009C61.3066 8.84341 75.1354 22.7783 75.8113 40.0893H67.6346C66.9679 40.0893 66.4223 40.6349 66.4223 41.3016V42.1896C66.4223 42.8594 66.9679 43.4018 67.6346 43.4018H75.781C74.7869 60.4128 61.0884 74.0083 44.035 74.8387ZM42.3802 0C19.505 0 0.960449 18.5457 0.960449 41.4198C0.959237 64.2951 19.505 82.8396 42.3802 82.8396C65.2555 82.8396 83.8 64.2951 83.8 41.4198C83.8 18.5445 65.2555 0 42.3802 0Z" fill="#006BFA"/>
<path d="M42.3801 42.329C42.065 42.329 41.7589 42.1653 41.5922 41.8714L30.8031 23.0056C30.5546 22.5692 30.7061 22.0146 31.1425 21.7631C31.5759 21.5145 32.1335 21.6661 32.382 22.1025L43.1681 40.9682C43.4196 41.4047 43.2681 41.9593 42.8317 42.2078C42.6893 42.2896 42.5347 42.329 42.3801 42.329" fill="#1CE8F5"/>
<path d="M42.3801 42.329C42.1225 42.329 41.8649 42.2199 41.6861 42.0077C41.3618 41.6229 41.4103 41.0501 41.7922 40.7258L49.9961 33.7796C50.381 33.4553 50.9538 33.5038 51.2781 33.8856C51.6024 34.2705 51.5569 34.8433 51.172 35.1676L42.9681 42.1138C42.7984 42.2593 42.5893 42.329 42.3801 42.329" fill="#1CE8F5"/>
<path d="M45.0834 41.4198C45.0834 39.9257 43.8742 38.7165 42.3801 38.7165C40.886 38.7165 39.6768 39.9257 39.6768 41.4198C39.6768 42.9139 40.886 44.1231 42.3801 44.1231C43.8742 44.1231 45.0834 42.9139 45.0834 41.4198Z" fill="#006BFA"/>
</svg>