<svg id="svg" xmlns="http://www.w3.org/2000/svg" xmlns:xlink="http://www.w3.org/1999/xlink" width="200" height="21.82741116751269" viewBox="0, 0, 400,43.65482233502538"><g id="svgg"><path id="path0" d="M2.009 2.824 C 1.489 3.345,1.465 40.548,1.985 41.190 L 2.304 41.583 6.896 41.583 C 11.081 41.583,11.514 41.557,11.786 41.286 C 12.060 41.012,12.087 40.470,12.131 34.510 L 12.178 28.032 17.214 27.955 C 22.775 27.870,23.203 27.801,25.293 26.647 C 30.776 23.620,33.264 16.743,31.044 10.750 C 30.725 9.889,30.138 8.607,30.013 8.500 C 29.960 8.454,29.812 8.214,29.684 7.965 C 29.425 7.463,28.458 6.296,27.860 5.764 C 27.645 5.573,27.233 5.205,26.943 4.945 C 26.271 4.343,24.699 3.466,23.417 2.978 C 21.904 2.403,2.570 2.263,2.009 2.824 M55.188 2.617 C 54.726 2.801,54.408 3.274,54.089 4.251 C 53.910 4.800,53.713 5.325,53.651 5.417 C 53.539 5.582,53.210 6.418,52.177 9.167 C 51.556 10.821,51.244 11.633,50.833 12.667 C 50.423 13.700,50.111 14.512,49.489 16.167 C 49.197 16.946,48.488 18.783,47.915 20.250 C 47.343 21.717,46.633 23.554,46.339 24.333 C 46.045 25.113,45.542 26.425,45.222 27.250 C 44.428 29.297,44.165 29.983,43.917 30.667 C 43.669 31.346,43.411 32.023,42.612 34.083 C 39.332 42.538,39.031 41.667,45.233 41.666 C 49.761 41.665,50.146 41.577,50.477 40.467 C 50.567 40.164,50.796 39.523,50.987 39.042 C 51.177 38.560,51.489 37.773,51.680 37.292 C 51.870 36.810,52.099 36.173,52.188 35.875 L 52.349 35.333 59.167 35.333 L 65.984 35.333 66.230 35.875 C 66.365 36.173,66.664 36.942,66.895 37.583 C 67.290 38.684,67.738 39.866,68.134 40.855 C 68.422 41.573,69.030 41.667,73.400 41.664 C 79.116 41.661,78.927 41.877,77.171 37.333 C 76.977 36.829,76.716 36.154,76.593 35.833 C 76.469 35.512,76.207 34.837,76.009 34.333 C 75.812 33.829,75.552 33.154,75.432 32.833 C 74.256 29.696,73.652 28.131,73.519 27.881 C 73.433 27.717,73.125 26.946,72.837 26.167 C 72.548 25.387,72.204 24.469,72.072 24.125 C 71.941 23.781,71.713 23.181,71.566 22.792 C 71.418 22.402,71.160 21.746,70.991 21.333 C 70.417 19.928,69.167 16.661,69.167 16.564 C 69.167 16.511,69.063 16.231,68.936 15.942 C 68.809 15.653,68.611 15.154,68.496 14.833 C 68.381 14.512,68.101 13.800,67.876 13.250 C 67.650 12.700,67.369 11.987,67.251 11.667 C 67.134 11.346,66.908 10.746,66.750 10.333 C 66.592 9.921,66.363 9.321,66.242 9.000 C 65.369 6.685,65.115 6.064,64.983 5.925 C 64.901 5.838,64.833 5.662,64.833 5.534 C 64.833 5.405,64.721 5.045,64.583 4.734 C 63.520 2.322,63.940 2.497,59.255 2.513 C 57.144 2.520,55.314 2.567,55.188 2.617 M89.833 2.617 C 89.696 2.672,89.528 2.799,89.461 2.900 C 89.394 3.001,89.337 11.650,89.336 22.121 L 89.333 41.158 89.825 41.412 C 90.425 41.723,98.102 41.788,98.956 41.490 C 99.658 41.246,99.667 41.156,99.667 34.479 L 99.667 28.667 101.649 28.667 L 103.632 28.667 104.294 29.958 C 104.658 30.669,105.200 31.700,105.500 32.250 C 106.870 34.768,108.988 38.779,109.821 40.435 C 110.434 41.652,110.507 41.667,115.879 41.667 C 121.196 41.667,121.333 41.640,121.333 40.594 C 121.333 40.216,121.230 39.760,121.104 39.579 C 120.979 39.398,120.370 38.275,119.752 37.083 C 119.134 35.892,118.327 34.354,117.959 33.667 C 117.590 32.979,117.031 31.936,116.716 31.349 C 116.400 30.761,115.667 29.371,115.086 28.261 L 114.029 26.241 114.639 25.888 C 120.389 22.565,122.161 13.586,118.169 7.997 C 116.426 5.556,114.319 4.020,111.250 2.952 C 110.258 2.607,90.626 2.299,89.833 2.617 M143.729 2.694 C 143.285 2.909,142.743 4.126,140.996 8.833 C 140.707 9.612,140.364 10.449,140.235 10.692 C 140.106 10.936,140.000 11.224,140.000 11.334 C 140.000 11.443,139.892 11.769,139.759 12.058 C 139.527 12.565,138.856 14.298,137.813 17.083 C 137.538 17.817,137.176 18.754,137.008 19.167 C 136.840 19.579,136.590 20.217,136.453 20.583 C 136.316 20.950,136.083 21.569,135.935 21.958 C 135.788 22.348,135.546 22.985,135.398 23.375 C 134.717 25.169,134.602 25.460,134.311 26.123 C 134.140 26.512,134.000 26.880,134.000 26.942 C 134.000 27.004,133.657 27.924,133.237 28.986 C 132.353 31.223,132.175 31.682,131.594 33.208 C 131.359 33.827,130.974 34.840,130.739 35.458 C 130.504 36.077,130.204 36.865,130.072 37.208 C 129.941 37.552,129.713 38.152,129.567 38.542 C 129.420 38.931,129.195 39.496,129.067 39.797 C 128.328 41.531,128.672 41.667,133.805 41.667 C 138.248 41.667,138.621 41.597,139.031 40.689 C 139.296 40.102,140.400 37.226,140.847 35.958 L 141.067 35.333 147.950 35.333 C 153.887 35.333,154.833 35.367,154.833 35.578 C 154.833 35.712,154.938 36.068,155.067 36.369 C 155.293 36.901,155.608 37.712,156.120 39.083 C 157.132 41.793,156.845 41.667,161.971 41.667 C 167.480 41.667,167.526 41.639,166.479 38.931 C 166.192 38.190,165.771 37.101,165.545 36.512 C 165.318 35.922,165.071 35.322,164.997 35.178 C 164.923 35.034,164.625 34.279,164.337 33.500 C 164.048 32.721,163.696 31.783,163.554 31.417 C 163.412 31.050,163.184 30.450,163.047 30.083 C 162.910 29.717,162.660 29.079,162.492 28.667 C 162.324 28.254,161.948 27.279,161.657 26.500 C 161.365 25.721,161.029 24.858,160.910 24.583 C 160.790 24.308,160.641 23.876,160.578 23.623 C 160.515 23.370,160.396 23.122,160.315 23.072 C 160.233 23.022,160.167 22.871,160.167 22.738 C 160.167 22.605,160.027 22.178,159.856 21.790 C 159.531 21.049,159.109 19.985,158.750 19.000 C 158.633 18.679,158.408 18.079,158.250 17.667 C 158.092 17.254,157.850 16.617,157.713 16.250 C 157.378 15.353,156.848 14.028,156.579 13.417 C 156.458 13.142,156.201 12.467,156.009 11.917 C 155.816 11.367,155.593 10.767,155.513 10.583 C 155.433 10.400,155.130 9.612,154.841 8.833 C 154.551 8.054,154.175 7.079,154.006 6.667 C 153.837 6.254,153.456 5.317,153.159 4.583 C 152.279 2.410,152.501 2.498,147.949 2.511 C 145.664 2.518,143.939 2.593,143.729 2.694 M180.705 2.612 C 180.304 2.773,180.018 3.617,179.920 4.932 C 179.866 5.657,179.715 7.263,179.584 8.500 C 179.453 9.737,179.227 11.950,179.082 13.417 C 178.936 14.883,178.676 17.396,178.502 19.000 C 178.329 20.604,178.067 23.117,177.920 24.583 C 177.773 26.050,177.546 28.300,177.416 29.583 C 177.287 30.867,177.068 33.042,176.930 34.417 C 176.793 35.792,176.594 37.749,176.488 38.767 C 176.271 40.851,176.328 41.201,176.928 41.475 C 177.480 41.727,184.910 41.739,185.626 41.489 C 186.287 41.259,186.248 41.440,186.919 35.417 C 187.062 34.133,187.323 31.846,187.499 30.333 C 187.808 27.689,188.217 24.016,188.437 21.917 C 188.551 20.827,188.587 20.866,189.072 22.583 C 189.227 23.133,189.498 24.071,189.674 24.667 C 189.850 25.262,190.111 26.162,190.254 26.667 C 190.397 27.171,190.626 27.958,190.761 28.417 C 190.897 28.875,191.200 29.925,191.434 30.750 C 191.669 31.575,191.971 32.625,192.106 33.083 C 192.241 33.542,192.457 34.292,192.587 34.750 C 192.716 35.208,192.931 35.958,193.063 36.417 C 193.378 37.504,193.812 39.040,194.100 40.083 C 194.493 41.505,194.477 41.500,198.860 41.500 L 202.683 41.500 203.081 41.070 C 203.300 40.834,203.528 40.403,203.588 40.112 C 203.648 39.821,203.943 38.758,204.244 37.750 C 204.544 36.742,204.920 35.429,205.079 34.833 C 205.237 34.237,205.462 33.450,205.579 33.083 C 205.696 32.717,205.922 31.929,206.081 31.333 C 206.241 30.738,206.473 29.912,206.597 29.500 C 206.722 29.087,206.978 28.225,207.167 27.583 C 207.355 26.942,207.612 26.079,207.736 25.667 C 207.860 25.254,208.091 24.429,208.248 23.833 C 208.405 23.238,208.633 22.450,208.755 22.083 C 208.877 21.717,209.001 21.269,209.031 21.089 C 209.061 20.909,209.218 21.847,209.381 23.173 C 209.657 25.434,209.777 26.488,210.401 32.167 C 210.537 33.404,210.765 35.467,210.907 36.750 C 211.049 38.033,211.208 39.507,211.259 40.025 C 211.416 41.600,211.339 41.575,216.176 41.633 C 222.007 41.703,221.657 42.073,221.010 36.523 C 220.833 34.998,220.568 32.550,220.421 31.083 C 220.275 29.617,220.048 27.367,219.916 26.083 C 219.785 24.800,219.560 22.587,219.416 21.167 C 219.271 19.746,219.046 17.571,218.915 16.333 C 218.784 15.096,218.559 12.846,218.413 11.333 C 217.789 4.828,217.534 3.104,217.153 2.792 C 216.831 2.528,216.309 2.500,211.741 2.500 C 205.645 2.500,206.153 2.289,205.336 5.167 C 205.036 6.221,204.696 7.383,204.580 7.750 C 204.464 8.117,204.236 8.867,204.073 9.417 C 203.911 9.967,203.644 10.829,203.479 11.333 C 203.315 11.838,202.950 13.037,202.670 14.000 C 201.615 17.615,201.213 18.968,200.833 20.167 C 200.499 21.225,200.163 22.332,199.746 23.750 C 199.584 24.300,199.350 25.033,199.226 25.378 C 199.102 25.724,199.000 26.160,199.000 26.347 C 199.000 26.888,198.693 26.551,198.488 25.785 C 198.385 25.399,198.207 24.783,198.092 24.417 C 197.845 23.624,197.521 22.531,196.829 20.167 C 196.547 19.204,196.176 17.967,196.004 17.417 C 195.833 16.867,195.562 15.967,195.404 15.417 C 195.245 14.867,195.022 14.117,194.909 13.750 C 194.795 13.383,194.572 12.633,194.413 12.083 C 194.254 11.533,194.033 10.783,193.921 10.417 C 193.809 10.050,193.586 9.300,193.425 8.750 C 193.264 8.200,192.999 7.337,192.836 6.833 C 192.673 6.329,192.366 5.297,192.155 4.539 C 191.540 2.341,192.014 2.498,186.035 2.513 C 183.220 2.520,180.821 2.565,180.705 2.612 M233.843 2.824 C 233.488 3.179,233.281 40.564,233.631 41.115 C 233.986 41.673,242.253 41.984,243.219 41.475 C 243.826 41.156,243.828 41.128,243.831 34.474 L 243.833 28.032 248.958 27.960 C 253.716 27.894,254.155 27.862,255.083 27.523 C 256.620 26.962,258.344 26.013,259.029 25.353 C 259.182 25.204,259.622 24.783,260.005 24.417 C 263.863 20.729,264.765 14.279,262.138 9.156 C 260.574 6.105,258.553 4.333,255.000 2.899 C 253.748 2.394,234.342 2.325,233.843 2.824 M286.911 2.659 C 286.454 2.844,286.277 3.101,285.930 4.083 C 285.768 4.542,285.536 5.142,285.414 5.417 C 285.292 5.692,285.141 6.124,285.078 6.377 C 285.015 6.630,284.896 6.878,284.815 6.928 C 284.733 6.978,284.667 7.151,284.667 7.312 C 284.667 7.473,284.517 7.915,284.333 8.294 C 284.150 8.673,284.000 9.085,284.000 9.209 C 284.000 9.332,283.940 9.505,283.867 9.592 C 283.747 9.733,283.576 10.154,282.736 12.375 C 282.128 13.983,281.988 14.351,281.417 15.833 C 281.081 16.704,280.709 17.679,280.589 18.000 C 280.231 18.958,279.803 20.061,279.651 20.417 C 279.573 20.600,279.350 21.200,279.156 21.750 C 278.962 22.300,278.660 23.068,278.485 23.457 C 278.310 23.845,278.167 24.264,278.167 24.387 C 278.167 24.510,278.118 24.659,278.059 24.718 C 277.906 24.872,277.168 26.713,277.167 26.945 C 277.167 27.052,277.060 27.352,276.930 27.611 C 276.800 27.871,276.581 28.383,276.443 28.750 C 276.306 29.117,275.919 30.129,275.583 31.000 C 274.960 32.619,274.690 33.325,274.250 34.500 C 273.585 36.272,273.448 36.625,273.214 37.167 C 272.842 38.024,271.983 40.360,271.884 40.779 C 271.705 41.544,272.402 41.667,276.917 41.667 C 282.092 41.667,281.759 41.809,282.750 39.167 C 283.183 38.012,283.538 37.101,283.756 36.583 C 283.872 36.308,283.994 35.933,284.027 35.750 C 284.087 35.424,284.236 35.416,290.929 35.373 L 297.770 35.330 298.071 35.957 C 298.236 36.301,298.549 37.127,298.767 37.791 C 298.985 38.455,299.234 39.130,299.321 39.291 C 299.409 39.452,299.611 39.949,299.771 40.396 C 300.209 41.622,300.399 41.667,305.170 41.667 C 310.857 41.667,310.810 41.708,309.246 38.083 C 309.128 37.808,308.920 37.283,308.784 36.917 C 308.158 35.224,307.602 33.764,307.167 32.667 C 306.877 31.937,306.612 31.244,306.068 29.792 C 305.922 29.402,305.702 28.858,305.579 28.583 C 305.456 28.308,305.188 27.596,304.984 27.000 C 304.780 26.404,304.550 25.845,304.473 25.758 C 304.396 25.671,304.333 25.502,304.333 25.382 C 304.333 25.261,304.194 24.845,304.023 24.457 C 303.852 24.068,303.598 23.450,303.458 23.083 C 303.183 22.360,302.803 21.361,302.430 20.375 C 301.664 18.353,300.952 16.519,300.765 16.083 C 300.646 15.808,300.307 14.946,300.013 14.167 C 299.311 12.311,299.028 11.576,298.667 10.667 C 298.381 9.947,298.126 9.280,297.583 7.833 C 296.257 4.296,295.681 3.029,295.269 2.741 C 294.883 2.470,287.553 2.398,286.911 2.659 M321.438 2.753 C 321.149 3.042,321.008 40.671,321.294 41.100 C 321.627 41.599,322.220 41.667,326.247 41.667 C 329.599 41.667,330.440 41.620,330.842 41.412 L 331.333 41.158 331.333 34.912 L 331.333 28.667 333.394 28.667 L 335.454 28.667 336.203 30.125 C 337.400 32.457,338.783 35.089,339.445 36.298 C 340.619 38.439,341.311 39.755,341.662 40.511 C 342.182 41.633,342.357 41.667,347.712 41.667 C 353.033 41.667,353.167 41.640,353.167 40.590 C 353.167 40.210,353.099 39.829,353.017 39.742 C 352.935 39.655,352.511 38.908,352.074 38.083 C 351.638 37.258,351.021 36.096,350.703 35.500 C 350.010 34.202,348.982 32.238,347.693 29.750 C 347.171 28.742,346.537 27.549,346.286 27.100 C 346.034 26.650,345.848 26.269,345.873 26.252 C 345.897 26.235,346.292 25.969,346.750 25.661 C 355.489 19.792,353.378 6.498,343.147 2.971 C 341.688 2.468,321.921 2.269,321.438 2.753 M375.542 2.672 C 375.183 2.816,374.839 3.433,374.266 4.958 C 373.687 6.499,373.452 7.114,373.167 7.833 C 372.858 8.610,372.501 9.547,372.102 10.625 C 371.786 11.479,371.331 12.648,371.079 13.250 C 370.964 13.525,370.815 13.938,370.748 14.167 C 370.681 14.396,370.573 14.658,370.508 14.750 C 370.443 14.842,370.222 15.404,370.017 16.000 C 369.812 16.596,369.544 17.308,369.421 17.583 C 369.212 18.050,369.011 18.568,368.435 20.125 C 368.180 20.815,367.984 21.329,367.083 23.667 C 366.179 26.014,365.984 26.524,365.747 27.167 C 365.407 28.089,364.830 29.552,364.662 29.917 C 364.578 30.100,364.350 30.700,364.156 31.250 C 363.963 31.800,363.704 32.475,363.582 32.750 C 363.459 33.025,363.307 33.457,363.244 33.710 C 363.181 33.963,363.063 34.211,362.982 34.261 C 362.900 34.312,362.833 34.493,362.833 34.663 C 362.833 34.833,362.728 35.185,362.598 35.445 C 362.364 35.915,361.958 36.909,361.418 38.333 C 361.261 38.746,361.028 39.330,360.900 39.631 C 360.099 41.510,360.451 41.667,365.483 41.667 C 370.726 41.667,370.529 41.754,371.490 39.000 C 371.698 38.404,371.969 37.692,372.092 37.417 C 372.216 37.142,372.443 36.560,372.598 36.123 L 372.880 35.330 379.700 35.373 L 386.520 35.417 386.938 36.500 C 387.168 37.096,387.455 37.846,387.576 38.167 C 389.004 41.958,388.488 41.667,393.780 41.667 C 398.892 41.667,399.325 41.499,398.600 39.797 C 398.472 39.496,398.247 38.931,398.100 38.542 C 397.953 38.152,397.725 37.552,397.593 37.208 C 397.461 36.865,397.080 35.871,396.746 35.000 C 396.413 34.129,396.034 33.180,395.903 32.891 C 395.773 32.603,395.667 32.314,395.667 32.250 C 395.667 32.186,395.564 31.897,395.439 31.609 C 395.183 31.016,394.733 29.869,394.417 29.000 C 394.300 28.679,394.089 28.117,393.949 27.750 C 393.808 27.383,393.420 26.371,393.087 25.500 C 392.753 24.629,392.381 23.692,392.259 23.417 C 392.137 23.142,391.907 22.542,391.748 22.083 C 391.588 21.625,391.364 21.025,391.248 20.750 C 391.133 20.475,390.945 19.987,390.829 19.667 C 390.714 19.346,390.435 18.633,390.209 18.083 C 389.814 17.123,389.564 16.475,389.065 15.125 C 388.766 14.319,388.552 13.763,387.411 10.833 C 386.893 9.504,386.284 7.929,386.057 7.333 C 385.266 5.256,385.128 4.912,384.815 4.232 C 384.642 3.855,384.500 3.467,384.500 3.369 C 384.500 2.587,377.171 2.017,375.542 2.672 M105.228 10.839 C 106.806 11.020,108.115 11.666,108.657 12.533 C 109.834 14.416,109.995 15.742,109.247 17.377 C 108.218 19.624,107.324 20.000,103.006 20.000 L 99.667 20.000 99.667 15.333 L 99.667 10.667 101.708 10.668 C 102.831 10.669,104.415 10.746,105.228 10.839 M337.049 10.837 C 341.812 11.383,343.183 17.168,339.104 19.507 L 338.250 19.997 334.792 19.998 L 331.333 20.000 331.333 15.333 L 331.333 10.667 333.458 10.668 C 334.627 10.669,336.243 10.745,337.049 10.837 M18.861 11.311 C 21.578 12.483,22.214 16.397,20.011 18.387 C 18.816 19.466,18.673 19.500,15.258 19.500 L 12.167 19.500 12.167 15.250 L 12.167 11.000 15.153 11.000 C 17.700 11.000,18.245 11.046,18.861 11.311 M250.831 11.415 C 253.732 12.886,253.958 17.082,251.232 18.878 L 250.287 19.500 247.060 19.500 L 243.833 19.500 243.833 15.250 L 243.833 11.000 246.922 11.000 C 249.884 11.000,250.045 11.017,250.831 11.415 M381.589 20.917 C 382.533 23.758,383.357 26.215,383.420 26.375 C 383.528 26.648,383.288 26.667,379.748 26.667 L 375.961 26.667 376.048 26.292 C 376.124 25.960,376.843 23.804,377.423 22.167 C 377.537 21.846,377.761 21.133,377.921 20.583 C 378.080 20.033,378.303 19.321,378.415 19.000 C 378.527 18.679,378.711 18.154,378.823 17.833 C 378.935 17.512,379.188 16.762,379.386 16.167 C 379.616 15.469,379.767 15.202,379.808 15.417 C 379.844 15.600,380.645 18.075,381.589 20.917 M60.211 18.170 C 60.706 19.681,61.271 21.404,61.466 22.000 C 61.661 22.596,62.019 23.646,62.262 24.333 C 62.504 25.021,62.762 25.827,62.834 26.125 L 62.965 26.667 59.232 26.667 C 57.180 26.667,55.500 26.624,55.500 26.572 C 55.500 26.413,56.864 22.299,57.192 21.469 C 57.361 21.040,57.500 20.573,57.500 20.433 C 57.500 20.293,57.605 19.932,57.733 19.631 C 57.861 19.330,58.204 18.333,58.495 17.417 C 58.786 16.500,59.058 15.646,59.099 15.518 C 59.216 15.157,59.255 15.250,60.211 18.170 M149.071 18.764 C 149.576 20.315,150.073 21.808,150.176 22.083 C 150.279 22.358,150.426 22.808,150.504 23.083 C 150.582 23.358,150.875 24.217,151.156 24.992 C 151.437 25.767,151.667 26.461,151.667 26.534 C 151.667 26.607,149.979 26.667,147.917 26.667 C 145.854 26.667,144.167 26.603,144.167 26.524 C 144.167 26.446,144.361 25.865,144.597 25.233 C 144.834 24.601,145.094 23.858,145.174 23.583 C 145.711 21.740,146.050 20.684,146.593 19.167 C 146.707 18.846,146.952 18.096,147.137 17.500 C 147.935 14.930,147.791 14.837,149.071 18.764 M292.835 20.667 C 293.769 23.462,294.596 25.956,294.672 26.208 L 294.810 26.667 290.997 26.667 L 287.184 26.667 287.422 26.095 C 287.554 25.781,287.820 25.013,288.013 24.387 C 288.207 23.762,288.463 22.988,288.581 22.667 C 288.700 22.346,288.927 21.633,289.087 21.083 C 289.246 20.533,289.451 19.896,289.543 19.667 C 289.635 19.438,289.768 19.025,289.840 18.750 C 289.958 18.297,290.335 17.221,290.826 15.935 C 291.071 15.292,290.923 14.944,292.835 20.667 " stroke="none" fill="#006bfa" fill-rule="evenodd"></path><path id="path1" d="" stroke="none" fill="#006bfa" fill-rule="evenodd"></path><path id="path2" d="" stroke="none" fill="#006bfa" fill-rule="evenodd"></path><path id="path3" d="" stroke="none" fill="#006bfa" fill-rule="evenodd"></path><path id="path4" d="" stroke="none" fill="#006bfa" fill-rule="evenodd"></path></g></svg>